<svg width="45" height="23" viewBox="0 0 45 23" fill="none" xmlns="http://www.w3.org/2000/svg">
<path d="M6.03125 0.3C5.36851 0.3 4.83125 0.837258 4.83125 1.5C4.83125 2.16274 5.36851 2.7 6.03125 2.7L6.03125 0.3ZM6.03125 2.7L45 2.69999L45 0.299995L6.03125 0.3L6.03125 2.7Z" fill="#3D3D3D"/>
<path d="M2 10.3C1.33726 10.3 0.8 10.8373 0.8 11.5C0.8 12.1627 1.33726 12.7 2 12.7L2 10.3ZM2 12.7L45 12.7L45 10.3L2 10.3L2 12.7Z" fill="#3D3D3D"/>
<path d="M9.39062 20.3C8.72788 20.3 8.19062 20.8373 8.19062 21.5C8.19062 22.1627 8.72788 22.7 9.39063 22.7L9.39062 20.3ZM9.39063 22.7L45 22.7L45 20.3L9.39062 20.3L9.39063 22.7Z" fill="#3D3D3D"/>
</svg>
